<svg data-v-0dd9719b="" version="1.0" xmlns="http://www.w3.org/2000/svg" xmlns:xlink="http://www.w3.org/1999/xlink" width="100%" height="100%" viewBox="0 0 340.000000 250.000000" preserveAspectRatio="xMidYMid meet" color-interpolation-filters="sRGB" style="margin: auto;"> <rect data-v-0dd9719b="" x="0" y="0" width="100%" height="100%" fill="#fff" fill-opacity="1" class="background"></rect> <rect data-v-0dd9719b="" x="0" y="0" width="100%" height="100%" fill="url(#watermark)" fill-opacity="1" class="watermarklayer"></rect> <g data-v-0dd9719b="" fill="#2052a3" class="icon-text-wrapper icon-svg-group iconsvg" transform="translate(48.599998474121094,87.90434265136719)"><g class="iconsvg-imagesvg" transform="translate(0,0)"><g><rect fill="#2052a3" fill-opacity="0" stroke-width="2" x="0" y="0" width="60" height="74.19131467009595" class="image-rect"></rect> <svg x="0" y="0" width="60" height="74.19131467009595" filtersec="colorsb2708749120" class="image-svg-svg primary" style="overflow: visible;"><svg xmlns="http://www.w3.org/2000/svg" viewBox="0 0 28.3700008392334 35.08000183105469"><g><g><path fill="#e5004f" opacity=".9" d="M0 0h28.37L0 35.08V0z"></path><path fill="#2052a3" opacity=".9" d="M28.37 0H0l28.37 35.08V0z"></path></g></g></svg></svg> <!----></g></g> <g transform="translate(67,15.755657196044922)"><g data-gra="path-name" fill-rule="" class="tp-name iconsvg-namesvg"><g transform="scale(1)"><g><path d="M46.59-32.48L38.59 0 28.22 0 25.1-14.15Q24.88-15.04 24.41-17.68 23.93-20.33 23.71-22.11L23.71-22.11Q23.53-20.66 23.13-18.52 22.73-16.37 22.34-14.57 21.95-12.77 19.11 0L19.11 0 8.73 0 0.69-32.48 9.15-32.48 12.69-16.2Q13.89-10.8 14.33-7.6L14.33-7.6Q14.62-9.86 15.36-13.75 16.11-17.64 16.75-20.2L16.75-20.2 19.62-32.48 27.75-32.48 30.53-20.2Q31.24-17.24 31.97-13.37 32.7-9.51 32.95-7.6L32.95-7.6Q33.24-10.06 34.52-16.15L34.52-16.15 38.12-32.48 46.59-32.48ZM70.07-7.15L70.07 0 50.79 0 50.79-32.48 70.07-32.48 70.07-25.44 59.56-25.44 59.56-20.33 69.29-20.33 69.29-13.29 59.56-13.29 59.56-7.15 70.07-7.15ZM106.68-32.48L106.68 0 95.18 0 83.31-22.88 83.11-22.88Q83.53-17.48 83.53-14.64L83.53-14.64 83.53 0 75.76 0 75.76-32.48 87.22-32.48 99.04-9.91 99.18-9.91Q98.86-14.82 98.86-17.8L98.86-17.8 98.86-32.48 106.68-32.48ZM111.15 10.2L111.15 10.2Q108.75 10.2 106.6 9.73L106.6 9.73 106.6 2.91Q107.31 3.04 108.11 3.21 108.91 3.38 109.84 3.38L109.84 3.38Q112.02 3.38 112.95 2.07 113.88 0.76 113.88-2.42L113.88-2.42 113.88-32.48 122.7-32.48 122.7-3.18Q122.7 3.42 119.81 6.81 116.93 10.2 111.15 10.2ZM138.54 0L129.72 0 129.72-32.48 138.54-32.48 138.54 0ZM176.49-32.48L176.49 0 164.98 0 153.12-22.88 152.92-22.88Q153.34-17.48 153.34-14.64L153.34-14.64 153.34 0 145.56 0 145.56-32.48 157.03-32.48 168.85-9.91 168.98-9.91Q168.67-14.82 168.67-17.8L168.67-17.8 168.67-32.48 176.49-32.48Z" transform="translate(-0.690000057220459, 32.47999954223633)"></path></g> <!----> <!----> <!----> <!----> <!----> <!----> <!----></g></g> <!----></g></g><defs v-gra="od"></defs></svg>